<svg width="861" height="380" viewBox="0 0 861 380" fill="none" xmlns="http://www.w3.org/2000/svg">
<path d="M124.956 98.5593H87.6957V135.804H124.956V98.5593ZM218.107 135.804H255.377V98.5593H218.107V135.804ZM260.842 74.489H242.207V93.1003H260.842V74.489ZM0 130.345V279.31H18.6316V260.687H37.2632V242.066H55.8947V260.687H74.5232V279.31H111.789V242.066H167.69V279.31H204.944V260.687H223.576V242.066H242.211V260.687H260.842V279.31H279.474V130.345H260.842V148.966H242.207V167.589H204.941V148.966H186.316V93.1003H204.941V74.489H242.207V55.8683H223.573V37.2445H186.316V18.6238H167.678V0H111.793V18.6238H93.1517V37.2445H55.8947V55.8683H37.2663V74.489H18.6347V130.345H0ZM149.053 186.204H186.316V223.448H149.053V186.204ZM55.8885 93.1003H74.5201V74.489H111.793V93.1003H130.421V148.966H111.796V167.589L111.789 167.63V167.589H74.5201V148.966H55.8947V148.981L55.8885 148.966V93.1003Z" transform="translate(300.526 100)" fill="#2881A7"/>
<rect width="200" height="120" transform="translate(160)" fill="#2881A7"/>
<path d="M50 0L93.3013 75H6.69873L50 0Z" transform="translate(276.039 52.1653) rotate(28.6029)" fill="#2881A7"/>
<rect width="160" height="95.5915" transform="translate(532 32)" fill="#2881A7"/>
<path d="M39.9575 0L74.5617 59.8086H5.35329L39.9575 0Z" transform="matrix(0.866946 -0.498402 0.5016 0.8651 546.159 113.013)" fill="#2881A7"/>
<rect width="200" height="120" transform="translate(661 192)" fill="#2881A7"/>
<path d="M50 0L93.3013 75H6.69873L50 0Z" transform="translate(613 202)" fill="#2881A7"/>
<rect width="200" height="120" transform="translate(0 172)" fill="#2881A7"/>
<path d="M50 0L93.3013 75H6.69873L50 0Z" transform="translate(246 192) rotate(90)" fill="#2881A7"/>
<path d="M62.5205 48.704C65.0805 49.5147 67.0858 50.88 68.5365 52.8C69.9872 54.6773 70.7125 57.0027 70.7125 59.776C70.7125 63.7013 69.1765 66.7307 66.1045 68.864C63.0752 70.9547 58.6378 72 52.7925 72H29.6245V27.2H51.5125C56.9738 27.2 61.1552 28.2453 64.0565 30.336C67.0005 32.4267 68.4725 35.264 68.4725 38.848C68.4725 41.024 67.9392 42.9653 66.8725 44.672C65.8485 46.3787 64.3978 47.7227 62.5205 48.704ZM39.9285 35.008V45.568H50.2325C52.7925 45.568 54.7338 45.12 56.0565 44.224C57.3792 43.328 58.0405 42.0053 58.0405 40.256C58.0405 38.5067 57.3792 37.2053 56.0565 36.352C54.7338 35.456 52.7925 35.008 50.2325 35.008H39.9285ZM52.0245 64.192C54.7552 64.192 56.8032 63.744 58.1685 62.848C59.5765 61.952 60.2805 60.5653 60.2805 58.688C60.2805 54.976 57.5285 53.12 52.0245 53.12H39.9285V64.192H52.0245ZM112.546 37.568V72H103.074V67.904C101.751 69.3973 100.173 70.5493 98.338 71.36C96.5033 72.128 94.5193 72.512 92.386 72.512C87.8633 72.512 84.2793 71.2107 81.634 68.608C78.9887 66.0053 77.666 62.144 77.666 57.024V37.568H87.65V55.552C87.65 61.0987 89.9753 63.872 94.626 63.872C97.0153 63.872 98.9353 63.104 100.386 61.568C101.837 59.9893 102.562 57.664 102.562 54.592V37.568H112.546ZM120.516 27.2H132.42L130.436 56.448H122.499L120.516 27.2ZM126.467 72.512C124.718 72.512 123.246 71.9573 122.051 70.848C120.899 69.696 120.323 68.3093 120.323 66.688C120.323 65.0667 120.899 63.7227 122.051 62.656C123.203 61.5467 124.675 60.992 126.467 60.992C128.259 60.992 129.731 61.5467 130.884 62.656C132.035 63.7227 132.611 65.0667 132.611 66.688C132.611 68.3093 132.014 69.696 130.819 70.848C129.667 71.9573 128.217 72.512 126.467 72.512Z" transform="translate(532 30)" fill="#FFEB3B"/>
<path d="M28.16 37.2H35.792C37.616 37.2 39.224 37.552 40.616 38.256C42.024 38.944 43.112 39.92 43.88 41.184C44.664 42.448 45.056 43.92 45.056 45.6C45.056 47.28 44.664 48.752 43.88 50.016C43.112 51.28 42.024 52.264 40.616 52.968C39.224 53.656 37.616 54 35.792 54H28.16V37.2ZM35.6 50.808C37.28 50.808 38.616 50.344 39.608 49.416C40.616 48.472 41.12 47.2 41.12 45.6C41.12 44 40.616 42.736 39.608 41.808C38.616 40.864 37.28 40.392 35.6 40.392H32.048V50.808H35.6ZM53.8681 54.192C52.5081 54.192 51.2841 53.912 50.1961 53.352C49.1241 52.776 48.2841 51.984 47.6761 50.976C47.0681 49.968 46.7641 48.824 46.7641 47.544C46.7641 46.264 47.0681 45.12 47.6761 44.112C48.2841 43.104 49.1241 42.32 50.1961 41.76C51.2841 41.184 52.5081 40.896 53.8681 40.896C55.2281 40.896 56.4441 41.184 57.5161 41.76C58.5881 42.32 59.4281 43.104 60.0361 44.112C60.6441 45.12 60.9481 46.264 60.9481 47.544C60.9481 48.824 60.6441 49.968 60.0361 50.976C59.4281 51.984 58.5881 52.776 57.5161 53.352C56.4441 53.912 55.2281 54.192 53.8681 54.192ZM53.8681 51.12C54.8281 51.12 55.6121 50.8 56.2201 50.16C56.8441 49.504 57.1561 48.632 57.1561 47.544C57.1561 46.456 56.8441 45.592 56.2201 44.952C55.6121 44.296 54.8281 43.968 53.8681 43.968C52.9081 43.968 52.1161 44.296 51.4921 44.952C50.8681 45.592 50.5561 46.456 50.5561 47.544C50.5561 48.632 50.8681 49.504 51.4921 50.16C52.1161 50.8 52.9081 51.12 53.8681 51.12ZM67.7947 54.192C66.7227 54.192 65.6747 54.064 64.6507 53.808C63.6267 53.536 62.8107 53.2 62.2027 52.8L63.4507 50.112C64.0267 50.48 64.7227 50.784 65.5387 51.024C66.3547 51.248 67.1547 51.36 67.9387 51.36C69.5227 51.36 70.3147 50.968 70.3147 50.184C70.3147 49.816 70.0987 49.552 69.6667 49.392C69.2347 49.232 68.5707 49.096 67.6747 48.984C66.6187 48.824 65.7467 48.64 65.0587 48.432C64.3707 48.224 63.7707 47.856 63.2587 47.328C62.7627 46.8 62.5147 46.048 62.5147 45.072C62.5147 44.256 62.7467 43.536 63.2107 42.912C63.6907 42.272 64.3787 41.776 65.2747 41.424C66.1867 41.072 67.2587 40.896 68.4907 40.896C69.4027 40.896 70.3067 41 71.2027 41.208C72.1147 41.4 72.8667 41.672 73.4587 42.024L72.2107 44.688C71.0747 44.048 69.8347 43.728 68.4907 43.728C67.6907 43.728 67.0907 43.84 66.6907 44.064C66.2907 44.288 66.0907 44.576 66.0907 44.928C66.0907 45.328 66.3067 45.608 66.7387 45.768C67.1707 45.928 67.8587 46.08 68.8027 46.224C69.8587 46.4 70.7227 46.592 71.3947 46.8C72.0667 46.992 72.6507 47.352 73.1467 47.88C73.6427 48.408 73.8907 49.144 73.8907 50.088C73.8907 50.888 73.6507 51.6 73.1707 52.224C72.6907 52.848 71.9867 53.336 71.0587 53.688C70.1467 54.024 69.0587 54.192 67.7947 54.192ZM72.8107 35.976L69.6427 39.432H66.3307L63.1627 35.976H65.8987L67.9867 37.776L70.0747 35.976H72.8107ZM84.5287 53.376C84.1607 53.648 83.7047 53.856 83.1607 54C82.6327 54.128 82.0727 54.192 81.4807 54.192C79.9447 54.192 78.7527 53.8 77.9047 53.016C77.0727 52.232 76.6567 51.08 76.6567 49.56V44.256H74.6647V41.376H76.6567V38.232H80.4007V41.376H83.6167V44.256H80.4007V49.512C80.4007 50.056 80.5367 50.48 80.8087 50.784C81.0967 51.072 81.4967 51.216 82.0087 51.216C82.6007 51.216 83.1047 51.056 83.5207 50.736L84.5287 53.376ZM86.6303 41.088H90.3743V54H86.6303V41.088ZM88.5023 39.288C87.8143 39.288 87.2543 39.088 86.8223 38.688C86.3903 38.288 86.1743 37.792 86.1743 37.2C86.1743 36.608 86.3903 36.112 86.8223 35.712C87.2543 35.312 87.8143 35.112 88.5023 35.112C89.1903 35.112 89.7503 35.304 90.1823 35.688C90.6143 36.072 90.8303 36.552 90.8303 37.128C90.8303 37.752 90.6143 38.272 90.1823 38.688C89.7503 39.088 89.1903 39.288 88.5023 39.288ZM100.089 54.192C98.7131 54.192 97.4731 53.912 96.3691 53.352C95.2811 52.776 94.4251 51.984 93.8011 50.976C93.1931 49.968 92.8891 48.824 92.8891 47.544C92.8891 46.264 93.1931 45.12 93.8011 44.112C94.4251 43.104 95.2811 42.32 96.3691 41.76C97.4731 41.184 98.7131 40.896 100.089 40.896C101.449 40.896 102.633 41.184 103.641 41.76C104.665 42.32 105.409 43.128 105.873 44.184L102.969 45.744C102.297 44.56 101.329 43.968 100.065 43.968C99.0891 43.968 98.2811 44.288 97.6411 44.928C97.0011 45.568 96.6811 46.44 96.6811 47.544C96.6811 48.648 97.0011 49.52 97.6411 50.16C98.2811 50.8 99.0891 51.12 100.065 51.12C101.345 51.12 102.313 50.528 102.969 49.344L105.873 50.928C105.409 51.952 104.665 52.752 103.641 53.328C102.633 53.904 101.449 54.192 100.089 54.192ZM104.457 35.976L101.289 39.432H97.9771L94.8091 35.976H97.5451L99.6331 37.776L101.721 35.976H104.457ZM113.479 48.936L111.679 50.712V54H107.935V36.192H111.679V46.272L117.151 41.088H121.615L116.239 46.56L122.095 54H117.559L113.479 48.936ZM135.845 41.088L130.013 54.792C129.421 56.28 128.685 57.328 127.805 57.936C126.941 58.544 125.893 58.848 124.661 58.848C123.989 58.848 123.325 58.744 122.669 58.536C122.013 58.328 121.477 58.04 121.061 57.672L122.429 55.008C122.717 55.264 123.045 55.464 123.413 55.608C123.797 55.752 124.173 55.824 124.541 55.824C125.053 55.824 125.469 55.696 125.789 55.44C126.109 55.2 126.397 54.792 126.653 54.216L126.701 54.096L121.109 41.088H124.973L128.597 49.848L132.245 41.088H135.845ZM160.705 40.896C162.321 40.896 163.601 41.376 164.545 42.336C165.505 43.28 165.985 44.704 165.985 46.608V54H162.241V47.184C162.241 46.16 162.025 45.4 161.593 44.904C161.177 44.392 160.577 44.136 159.793 44.136C158.913 44.136 158.217 44.424 157.705 45C157.193 45.56 156.937 46.4 156.937 47.52V54H153.193V47.184C153.193 45.152 152.377 44.136 150.745 44.136C149.881 44.136 149.193 44.424 148.681 45C148.169 45.56 147.913 46.4 147.913 47.52V54H144.169V41.088H147.745V42.576C148.225 42.032 148.809 41.616 149.497 41.328C150.201 41.04 150.969 40.896 151.801 40.896C152.713 40.896 153.537 41.08 154.273 41.448C155.009 41.8 155.601 42.32 156.049 43.008C156.577 42.336 157.241 41.816 158.041 41.448C158.857 41.08 159.745 40.896 160.705 40.896ZM169.341 41.088H173.085V54H169.341V41.088ZM171.213 39.288C170.525 39.288 169.965 39.088 169.533 38.688C169.101 38.288 168.885 37.792 168.885 37.2C168.885 36.608 169.101 36.112 169.533 35.712C169.965 35.312 170.525 35.112 171.213 35.112C171.901 35.112 172.461 35.304 172.893 35.688C173.325 36.072 173.541 36.552 173.541 37.128C173.541 37.752 173.325 38.272 172.893 38.688C172.461 39.088 171.901 39.288 171.213 39.288ZM20.6569 69.896C21.8569 69.896 22.9449 70.176 23.9209 70.736C24.9129 71.28 25.6889 72.056 26.2489 73.064C26.8089 74.056 27.0889 75.216 27.0889 76.544C27.0889 77.872 26.8089 79.04 26.2489 80.048C25.6889 81.04 24.9129 81.816 23.9209 82.376C22.9449 82.92 21.8569 83.192 20.6569 83.192C18.8809 83.192 17.5289 82.632 16.6009 81.512V83H13.0249V65.192H16.7689V71.456C17.7129 70.416 19.0089 69.896 20.6569 69.896ZM20.0089 80.12C20.9689 80.12 21.7529 79.8 22.3609 79.16C22.9849 78.504 23.2969 77.632 23.2969 76.544C23.2969 75.456 22.9849 74.592 22.3609 73.952C21.7529 73.296 20.9689 72.968 20.0089 72.968C19.0489 72.968 18.2569 73.296 17.6329 73.952C17.0249 74.592 16.7209 75.456 16.7209 76.544C16.7209 77.632 17.0249 78.504 17.6329 79.16C18.2569 79.8 19.0489 80.12 20.0089 80.12ZM42.6032 70.088V83H39.0512V81.464C38.5552 82.024 37.9632 82.456 37.2752 82.76C36.5872 83.048 35.8432 83.192 35.0432 83.192C33.3472 83.192 32.0032 82.704 31.0112 81.728C30.0192 80.752 29.5232 79.304 29.5232 77.384V70.088H33.2672V76.832C33.2672 78.912 34.1392 79.952 35.8832 79.952C36.7792 79.952 37.4992 79.664 38.0432 79.088C38.5872 78.496 38.8592 77.624 38.8592 76.472V70.088H42.6032ZM59.2238 65.192V83H55.6477V81.512C54.7197 82.632 53.3757 83.192 51.6158 83.192C50.3998 83.192 49.2958 82.92 48.3038 82.376C47.3278 81.832 46.5597 81.056 45.9997 80.048C45.4397 79.04 45.1598 77.872 45.1598 76.544C45.1598 75.216 45.4397 74.048 45.9997 73.04C46.5597 72.032 47.3278 71.256 48.3038 70.712C49.2958 70.168 50.3998 69.896 51.6158 69.896C53.2638 69.896 54.5517 70.416 55.4797 71.456V65.192H59.2238ZM52.2638 80.12C53.2077 80.12 53.9918 79.8 54.6158 79.16C55.2397 78.504 55.5518 77.632 55.5518 76.544C55.5518 75.456 55.2397 74.592 54.6158 73.952C53.9918 73.296 53.2077 72.968 52.2638 72.968C51.3037 72.968 50.5117 73.296 49.8878 73.952C49.2637 74.592 48.9518 75.456 48.9518 76.544C48.9518 77.632 49.2637 78.504 49.8878 79.16C50.5117 79.8 51.3037 80.12 52.2638 80.12ZM75.6969 70.088V83H72.1449V81.464C71.6489 82.024 71.0569 82.456 70.3689 82.76C69.6809 83.048 68.9369 83.192 68.1369 83.192C66.4409 83.192 65.0969 82.704 64.1049 81.728C63.1129 80.752 62.6169 79.304 62.6169 77.384V70.088H66.3609V76.832C66.3609 78.912 67.2329 79.952 68.9769 79.952C69.8729 79.952 70.5929 79.664 71.1369 79.088C71.6809 78.496 71.9529 77.624 71.9529 76.472V70.088H75.6969ZM70.2009 64.976H74.2329L69.8889 68.432H66.9609L70.2009 64.976ZM92.2024 83.192C90.8264 83.192 89.5864 82.912 88.4824 82.352C87.3944 81.776 86.5384 80.984 85.9144 79.976C85.3064 78.968 85.0024 77.824 85.0024 76.544C85.0024 75.264 85.3064 74.12 85.9144 73.112C86.5384 72.104 87.3944 71.32 88.4824 70.76C89.5864 70.184 90.8264 69.896 92.2024 69.896C93.5624 69.896 94.7464 70.184 95.7544 70.76C96.7784 71.32 97.5224 72.128 97.9864 73.184L95.0824 74.744C94.4104 73.56 93.4424 72.968 92.1784 72.968C91.2024 72.968 90.3944 73.288 89.7544 73.928C89.1144 74.568 88.7944 75.44 88.7944 76.544C88.7944 77.648 89.1144 78.52 89.7544 79.16C90.3944 79.8 91.2024 80.12 92.1784 80.12C93.4584 80.12 94.4264 79.528 95.0824 78.344L97.9864 79.928C97.5224 80.952 96.7784 81.752 95.7544 82.328C94.7464 82.904 93.5624 83.192 92.2024 83.192ZM107.896 69.896C109.496 69.896 110.784 70.376 111.76 71.336C112.752 72.296 113.248 73.72 113.248 75.608V83H109.504V76.184C109.504 75.16 109.28 74.4 108.832 73.904C108.384 73.392 107.736 73.136 106.888 73.136C105.944 73.136 105.192 73.432 104.632 74.024C104.072 74.6 103.792 75.464 103.792 76.616V83H100.048V65.192H103.792V71.432C104.288 70.936 104.888 70.56 105.592 70.304C106.296 70.032 107.064 69.896 107.896 69.896ZM129.224 70.088L123.392 83.792C122.8 85.28 122.064 86.328 121.184 86.936C120.32 87.544 119.272 87.848 118.04 87.848C117.368 87.848 116.704 87.744 116.048 87.536C115.392 87.328 114.856 87.04 114.44 86.672L115.808 84.008C116.096 84.264 116.424 84.464 116.792 84.608C117.176 84.752 117.552 84.824 117.92 84.824C118.432 84.824 118.848 84.696 119.168 84.44C119.488 84.2 119.776 83.792 120.032 83.216L120.08 83.096L114.488 70.088H118.352L121.976 78.848L125.624 70.088H129.224ZM122.648 64.976H126.68L122.336 68.432H119.408L122.648 64.976ZM138.383 69.896C139.583 69.896 140.671 70.176 141.647 70.736C142.639 71.28 143.415 72.056 143.975 73.064C144.535 74.056 144.815 75.216 144.815 76.544C144.815 77.872 144.535 79.04 143.975 80.048C143.415 81.04 142.639 81.816 141.647 82.376C140.671 82.92 139.583 83.192 138.383 83.192C136.607 83.192 135.255 82.632 134.327 81.512V83H130.751V65.192H134.495V71.456C135.439 70.416 136.735 69.896 138.383 69.896ZM137.735 80.12C138.695 80.12 139.479 79.8 140.087 79.16C140.711 78.504 141.023 77.632 141.023 76.544C141.023 75.456 140.711 74.592 140.087 73.952C139.479 73.296 138.695 72.968 137.735 72.968C136.775 72.968 135.983 73.296 135.359 73.952C134.751 74.592 134.447 75.456 134.447 76.544C134.447 77.632 134.751 78.504 135.359 79.16C135.983 79.8 136.775 80.12 137.735 80.12ZM152.319 69.896C154.319 69.896 155.855 70.376 156.927 71.336C157.999 72.28 158.535 73.712 158.535 75.632V83H155.031V81.392C154.327 82.592 153.015 83.192 151.095 83.192C150.103 83.192 149.239 83.024 148.503 82.688C147.783 82.352 147.231 81.888 146.847 81.296C146.463 80.704 146.271 80.032 146.271 79.28C146.271 78.08 146.719 77.136 147.615 76.448C148.527 75.76 149.927 75.416 151.815 75.416H154.791C154.791 74.6 154.543 73.976 154.047 73.544C153.551 73.096 152.807 72.872 151.815 72.872C151.127 72.872 150.447 72.984 149.775 73.208C149.119 73.416 148.559 73.704 148.095 74.072L146.751 71.456C147.455 70.96 148.295 70.576 149.271 70.304C150.263 70.032 151.279 69.896 152.319 69.896ZM152.031 80.672C152.671 80.672 153.239 80.528 153.735 80.24C154.231 79.936 154.583 79.496 154.791 78.92V77.6H152.223C150.687 77.6 149.919 78.104 149.919 79.112C149.919 79.592 150.103 79.976 150.471 80.264C150.855 80.536 151.375 80.672 152.031 80.672ZM170.251 82.376C169.883 82.648 169.427 82.856 168.883 83C168.355 83.128 167.795 83.192 167.203 83.192C165.667 83.192 164.475 82.8 163.627 82.016C162.795 81.232 162.379 80.08 162.379 78.56V73.256H160.387V70.376H162.379V67.232H166.123V70.376H169.339V73.256H166.123V78.512C166.123 79.056 166.259 79.48 166.531 79.784C166.819 80.072 167.219 80.216 167.731 80.216C168.323 80.216 168.827 80.056 169.243 79.736L170.251 82.376ZM167.755 64.568H170.419L170.035 69.032H167.755V64.568ZM174.003 83.192C173.347 83.192 172.795 82.968 172.347 82.52C171.899 82.072 171.675 81.512 171.675 80.84C171.675 80.152 171.899 79.6 172.347 79.184C172.795 78.752 173.347 78.536 174.003 78.536C174.659 78.536 175.211 78.752 175.659 79.184C176.107 79.6 176.331 80.152 176.331 80.84C176.331 81.512 176.107 82.072 175.659 82.52C175.211 82.968 174.659 83.192 174.003 83.192ZM180.285 83.192C179.629 83.192 179.077 82.968 178.629 82.52C178.181 82.072 177.957 81.512 177.957 80.84C177.957 80.152 178.181 79.6 178.629 79.184C179.077 78.752 179.629 78.536 180.285 78.536C180.941 78.536 181.493 78.752 181.941 79.184C182.389 79.6 182.613 80.152 182.613 80.84C182.613 81.512 182.389 82.072 181.941 82.52C181.493 82.968 180.941 83.192 180.285 83.192ZM186.566 83.192C185.91 83.192 185.358 82.968 184.91 82.52C184.462 82.072 184.238 81.512 184.238 80.84C184.238 80.152 184.462 79.6 184.91 79.184C185.358 78.752 185.91 78.536 186.566 78.536C187.222 78.536 187.774 78.752 188.222 79.184C188.67 79.6 188.894 80.152 188.894 80.84C188.894 81.512 188.67 82.072 188.222 82.52C187.774 82.968 187.222 83.192 186.566 83.192Z" transform="translate(660 192)" fill="#FFEB3B"/>
<path d="M64.953 60.264C65.913 60.568 66.665 61.08 67.209 61.8C67.753 62.504 68.025 63.376 68.025 64.416C68.025 65.888 67.449 67.024 66.297 67.824C65.161 68.608 63.497 69 61.305 69H52.617V52.2H60.825C62.873 52.2 64.441 52.592 65.529 53.376C66.633 54.16 67.185 55.224 67.185 56.568C67.185 57.384 66.985 58.112 66.585 58.752C66.201 59.392 65.657 59.896 64.953 60.264ZM56.481 55.128V59.088H60.345C61.305 59.088 62.033 58.92 62.529 58.584C63.025 58.248 63.273 57.752 63.273 57.096C63.273 56.44 63.025 55.952 62.529 55.632C62.033 55.296 61.305 55.128 60.345 55.128H56.481ZM61.017 66.072C62.041 66.072 62.809 65.904 63.321 65.568C63.849 65.232 64.113 64.712 64.113 64.008C64.113 62.616 63.081 61.92 61.017 61.92H56.481V66.072H61.017ZM76.8486 69.192C75.4886 69.192 74.2646 68.912 73.1766 68.352C72.1046 67.776 71.2646 66.984 70.6566 65.976C70.0486 64.968 69.7446 63.824 69.7446 62.544C69.7446 61.264 70.0486 60.12 70.6566 59.112C71.2646 58.104 72.1046 57.32 73.1766 56.76C74.2646 56.184 75.4886 55.896 76.8486 55.896C78.2086 55.896 79.4246 56.184 80.4966 56.76C81.5686 57.32 82.4086 58.104 83.0166 59.112C83.6246 60.12 83.9286 61.264 83.9286 62.544C83.9286 63.824 83.6246 64.968 83.0166 65.976C82.4086 66.984 81.5686 67.776 80.4966 68.352C79.4246 68.912 78.2086 69.192 76.8486 69.192ZM76.8486 66.12C77.8086 66.12 78.5926 65.8 79.2006 65.16C79.8246 64.504 80.1366 63.632 80.1366 62.544C80.1366 61.456 79.8246 60.592 79.2006 59.952C78.5926 59.296 77.8086 58.968 76.8486 58.968C75.8886 58.968 75.0966 59.296 74.4726 59.952C73.8486 60.592 73.5366 61.456 73.5366 62.544C73.5366 63.632 73.8486 64.504 74.4726 65.16C75.0966 65.8 75.8886 66.12 76.8486 66.12ZM86.4311 51.192H90.1751V69H86.4311V51.192ZM93.6499 56.088H97.3939V69H93.6499V56.088ZM96.5779 50.976H100.61L96.2659 54.432H93.3379L96.5779 50.976ZM115.993 68.376C115.626 68.648 115.17 68.856 114.625 69C114.098 69.128 113.537 69.192 112.945 69.192C111.41 69.192 110.217 68.8 109.37 68.016C108.538 67.232 108.121 66.08 108.121 64.56V59.256H106.13V56.376H108.121V53.232H111.865V56.376H115.082V59.256H111.865V64.512C111.865 65.056 112.001 65.48 112.273 65.784C112.561 66.072 112.962 66.216 113.474 66.216C114.066 66.216 114.57 66.056 114.986 65.736L115.993 68.376ZM123.841 69.192C122.481 69.192 121.257 68.912 120.169 68.352C119.097 67.776 118.257 66.984 117.649 65.976C117.041 64.968 116.737 63.824 116.737 62.544C116.737 61.264 117.041 60.12 117.649 59.112C118.257 58.104 119.097 57.32 120.169 56.76C121.257 56.184 122.481 55.896 123.841 55.896C125.201 55.896 126.417 56.184 127.489 56.76C128.561 57.32 129.401 58.104 130.009 59.112C130.617 60.12 130.921 61.264 130.921 62.544C130.921 63.824 130.617 64.968 130.009 65.976C129.401 66.984 128.561 67.776 127.489 68.352C126.417 68.912 125.201 69.192 123.841 69.192ZM123.841 66.12C124.801 66.12 125.585 65.8 126.193 65.16C126.817 64.504 127.129 63.632 127.129 62.544C127.129 61.456 126.817 60.592 126.193 59.952C125.585 59.296 124.801 58.968 123.841 58.968C122.881 58.968 122.089 59.296 121.465 59.952C120.841 60.592 120.529 61.456 120.529 62.544C120.529 63.632 120.841 64.504 121.465 65.16C122.089 65.8 122.881 66.12 123.841 66.12ZM134.675 69.192C134.019 69.192 133.467 68.968 133.019 68.52C132.571 68.072 132.347 67.512 132.347 66.84C132.347 66.152 132.571 65.6 133.019 65.184C133.467 64.752 134.019 64.536 134.675 64.536C135.331 64.536 135.883 64.752 136.331 65.184C136.779 65.6 137.003 66.152 137.003 66.84C137.003 67.512 136.779 68.072 136.331 68.52C135.883 68.968 135.331 69.192 134.675 69.192ZM140.956 69.192C140.3 69.192 139.749 68.968 139.3 68.52C138.852 68.072 138.629 67.512 138.629 66.84C138.629 66.152 138.852 65.6 139.3 65.184C139.749 64.752 140.3 64.536 140.956 64.536C141.612 64.536 142.164 64.752 142.613 65.184C143.061 65.6 143.285 66.152 143.285 66.84C143.285 67.512 143.061 68.072 142.613 68.52C142.164 68.968 141.612 69.192 140.956 69.192ZM147.238 69.192C146.582 69.192 146.03 68.968 145.582 68.52C145.134 68.072 144.91 67.512 144.91 66.84C144.91 66.152 145.134 65.6 145.582 65.184C146.03 64.752 146.582 64.536 147.238 64.536C147.894 64.536 148.446 64.752 148.894 65.184C149.342 65.6 149.566 66.152 149.566 66.84C149.566 67.512 149.342 68.072 148.894 68.52C148.446 68.968 147.894 69.192 147.238 69.192Z" transform="translate(159)" fill="#FFEB3B"/>
<path d="M57.3358 45.264C58.2958 45.568 59.0478 46.08 59.5918 46.8C60.1358 47.504 60.4078 48.376 60.4078 49.416C60.4078 50.888 59.8318 52.024 58.6798 52.824C57.5438 53.608 55.8798 54 53.6878 54H44.9998V37.2H53.2078C55.2558 37.2 56.8238 37.592 57.9118 38.376C59.0158 39.16 59.5678 40.224 59.5678 41.568C59.5678 42.384 59.3678 43.112 58.9678 43.752C58.5838 44.392 58.0398 44.896 57.3358 45.264ZM48.8638 40.128V44.088H52.7278C53.6878 44.088 54.4158 43.92 54.9118 43.584C55.4078 43.248 55.6558 42.752 55.6558 42.096C55.6558 41.44 55.4078 40.952 54.9118 40.632C54.4158 40.296 53.6878 40.128 52.7278 40.128H48.8638ZM53.3998 51.072C54.4238 51.072 55.1918 50.904 55.7038 50.568C56.2318 50.232 56.4958 49.712 56.4958 49.008C56.4958 47.616 55.4638 46.92 53.3998 46.92H48.8638V51.072H53.3998ZM69.2314 54.192C67.8714 54.192 66.6474 53.912 65.5594 53.352C64.4874 52.776 63.6474 51.984 63.0394 50.976C62.4314 49.968 62.1274 48.824 62.1274 47.544C62.1274 46.264 62.4314 45.12 63.0394 44.112C63.6474 43.104 64.4874 42.32 65.5594 41.76C66.6474 41.184 67.8714 40.896 69.2314 40.896C70.5914 40.896 71.8074 41.184 72.8794 41.76C73.9514 42.32 74.7914 43.104 75.3994 44.112C76.0074 45.12 76.3114 46.264 76.3114 47.544C76.3114 48.824 76.0074 49.968 75.3994 50.976C74.7914 51.984 73.9514 52.776 72.8794 53.352C71.8074 53.912 70.5914 54.192 69.2314 54.192ZM69.2314 51.12C70.1914 51.12 70.9754 50.8 71.5834 50.16C72.2074 49.504 72.5194 48.632 72.5194 47.544C72.5194 46.456 72.2074 45.592 71.5834 44.952C70.9754 44.296 70.1914 43.968 69.2314 43.968C68.2714 43.968 67.4794 44.296 66.8554 44.952C66.2314 45.592 65.9194 46.456 65.9194 47.544C65.9194 48.632 66.2314 49.504 66.8554 50.16C67.4794 50.8 68.2714 51.12 69.2314 51.12ZM77.8539 58.848C76.5419 58.848 75.5419 58.608 74.8539 58.128L75.8619 55.416C76.2939 55.72 76.8219 55.872 77.4459 55.872C77.9259 55.872 78.3019 55.712 78.5739 55.392C78.8459 55.088 78.9819 54.624 78.9819 54V41.088H82.7259V53.976C82.7259 55.48 82.2939 56.664 81.4299 57.528C80.5819 58.408 79.3899 58.848 77.8539 58.848ZM80.8539 39.288C80.1659 39.288 79.6059 39.088 79.1739 38.688C78.7419 38.288 78.5259 37.792 78.5259 37.2C78.5259 36.608 78.7419 36.112 79.1739 35.712C79.6059 35.312 80.1659 35.112 80.8539 35.112C81.5419 35.112 82.1019 35.304 82.5339 35.688C82.9659 36.072 83.1819 36.552 83.1819 37.128C83.1819 37.752 82.9659 38.272 82.5339 38.688C82.1019 39.088 81.5419 39.288 80.8539 39.288ZM86.1733 41.088H89.9173V54H86.1733V41.088ZM89.1013 35.976H93.1333L88.7893 39.432H85.8613L89.1013 35.976ZM109.928 40.896C111.544 40.896 112.824 41.376 113.768 42.336C114.728 43.28 115.208 44.704 115.208 46.608V54H111.464V47.184C111.464 46.16 111.248 45.4 110.816 44.904C110.4 44.392 109.8 44.136 109.016 44.136C108.136 44.136 107.44 44.424 106.928 45C106.416 45.56 106.16 46.4 106.16 47.52V54H102.416V47.184C102.416 45.152 101.6 44.136 99.9681 44.136C99.1041 44.136 98.4161 44.424 97.9041 45C97.3921 45.56 97.1361 46.4 97.1361 47.52V54H93.3921V41.088H96.9681V42.576C97.4481 42.032 98.0321 41.616 98.7201 41.328C99.4241 41.04 100.192 40.896 101.024 40.896C101.936 40.896 102.76 41.08 103.496 41.448C104.232 41.8 104.824 42.32 105.272 43.008C105.8 42.336 106.464 41.816 107.264 41.448C108.08 41.08 108.968 40.896 109.928 40.896ZM129.705 54.192C128.633 54.192 127.585 54.064 126.561 53.808C125.537 53.536 124.721 53.2 124.113 52.8L125.361 50.112C125.937 50.48 126.633 50.784 127.449 51.024C128.265 51.248 129.065 51.36 129.849 51.36C131.433 51.36 132.225 50.968 132.225 50.184C132.225 49.816 132.009 49.552 131.577 49.392C131.145 49.232 130.481 49.096 129.585 48.984C128.529 48.824 127.657 48.64 126.969 48.432C126.281 48.224 125.681 47.856 125.169 47.328C124.673 46.8 124.425 46.048 124.425 45.072C124.425 44.256 124.657 43.536 125.121 42.912C125.601 42.272 126.289 41.776 127.185 41.424C128.097 41.072 129.169 40.896 130.401 40.896C131.313 40.896 132.217 41 133.113 41.208C134.025 41.4 134.777 41.672 135.369 42.024L134.121 44.688C132.985 44.048 131.745 43.728 130.401 43.728C129.601 43.728 129.001 43.84 128.601 44.064C128.201 44.288 128.001 44.576 128.001 44.928C128.001 45.328 128.217 45.608 128.649 45.768C129.081 45.928 129.769 46.08 130.713 46.224C131.769 46.4 132.633 46.592 133.305 46.8C133.977 46.992 134.561 47.352 135.057 47.88C135.553 48.408 135.801 49.144 135.801 50.088C135.801 50.888 135.561 51.6 135.081 52.224C134.601 52.848 133.897 53.336 132.969 53.688C132.057 54.024 130.969 54.192 129.705 54.192ZM143.319 40.896C145.319 40.896 146.855 41.376 147.927 42.336C148.999 43.28 149.535 44.712 149.535 46.632V54H146.031V52.392C145.327 53.592 144.015 54.192 142.095 54.192C141.103 54.192 140.239 54.024 139.503 53.688C138.783 53.352 138.231 52.888 137.847 52.296C137.463 51.704 137.271 51.032 137.271 50.28C137.271 49.08 137.719 48.136 138.615 47.448C139.527 46.76 140.927 46.416 142.815 46.416H145.791C145.791 45.6 145.543 44.976 145.047 44.544C144.551 44.096 143.807 43.872 142.815 43.872C142.127 43.872 141.447 43.984 140.775 44.208C140.119 44.416 139.559 44.704 139.095 45.072L137.751 42.456C138.455 41.96 139.295 41.576 140.271 41.304C141.263 41.032 142.279 40.896 143.319 40.896ZM143.031 51.672C143.671 51.672 144.239 51.528 144.735 51.24C145.231 50.936 145.583 50.496 145.791 49.92V48.6H143.223C141.687 48.6 140.919 49.104 140.919 50.112C140.919 50.592 141.103 50.976 141.471 51.264C141.855 51.536 142.375 51.672 143.031 51.672ZM40.0366 70.088H43.7806V83H40.0366V70.088ZM41.9086 68.288C41.2206 68.288 40.6606 68.088 40.2286 67.688C39.7966 67.288 39.5806 66.792 39.5806 66.2C39.5806 65.608 39.7966 65.112 40.2286 64.712C40.6606 64.312 41.2206 64.112 41.9086 64.112C42.5966 64.112 43.1566 64.304 43.5886 64.688C44.0206 65.072 44.2366 65.552 44.2366 66.128C44.2366 66.752 44.0206 67.272 43.5886 67.688C43.1566 68.088 42.5966 68.288 41.9086 68.288ZM55.1033 69.896C56.7033 69.896 57.9913 70.376 58.9673 71.336C59.9593 72.296 60.4553 73.72 60.4553 75.608V83H56.7113V76.184C56.7113 75.16 56.4873 74.4 56.0393 73.904C55.5913 73.392 54.9433 73.136 54.0953 73.136C53.1513 73.136 52.3993 73.432 51.8393 74.024C51.2793 74.6 50.9993 75.464 50.9993 76.616V83H47.2553V65.192H50.9993V71.432C51.4953 70.936 52.0953 70.56 52.7993 70.304C53.5033 70.032 54.2713 69.896 55.1033 69.896ZM63.8491 70.088H67.5931V83H63.8491V70.088ZM65.7211 68.288C65.0331 68.288 64.4731 68.088 64.0411 67.688C63.6091 67.288 63.3931 66.792 63.3931 66.2C63.3931 65.608 63.6091 65.112 64.0411 64.712C64.4731 64.312 65.0331 64.112 65.7211 64.112C66.4091 64.112 66.9691 64.304 67.4011 64.688C67.8331 65.072 68.0491 65.552 68.0491 66.128C68.0491 66.752 67.8331 67.272 67.4011 67.688C66.9691 68.088 66.4091 68.288 65.7211 68.288ZM83.7158 76.592C83.7158 76.64 83.6918 76.976 83.6438 77.6H73.8758C74.0518 78.4 74.4678 79.032 75.1238 79.496C75.7798 79.96 76.5958 80.192 77.5718 80.192C78.2438 80.192 78.8358 80.096 79.3478 79.904C79.8758 79.696 80.3638 79.376 80.8118 78.944L82.8038 81.104C81.5878 82.496 79.8118 83.192 77.4758 83.192C76.0198 83.192 74.7318 82.912 73.6118 82.352C72.4918 81.776 71.6278 80.984 71.0198 79.976C70.4118 78.968 70.1078 77.824 70.1078 76.544C70.1078 75.28 70.4038 74.144 70.9958 73.136C71.6038 72.112 72.4278 71.32 73.4678 70.76C74.5238 70.184 75.6998 69.896 76.9958 69.896C78.2598 69.896 79.4038 70.168 80.4278 70.712C81.4518 71.256 82.2518 72.04 82.8278 73.064C83.4198 74.072 83.7158 75.248 83.7158 76.592ZM77.0198 72.728C76.1718 72.728 75.4598 72.968 74.8838 73.448C74.3078 73.928 73.9558 74.584 73.8278 75.416H80.1878C80.0598 74.6 79.7078 73.952 79.1318 73.472C78.5558 72.976 77.8518 72.728 77.0198 72.728ZM86.2085 65.192H89.9525V83H86.2085V65.192ZM105.624 62.792H108.96L101.04 85.4H97.7041L105.624 62.792ZM121.963 77.936L120.163 79.712V83H116.419V65.192H120.163V75.272L125.635 70.088H130.099L124.723 75.56L130.579 83H126.043L121.963 77.936ZM135.745 71.792C136.193 71.168 136.793 70.696 137.545 70.376C138.313 70.056 139.193 69.896 140.185 69.896V73.352C139.769 73.32 139.489 73.304 139.345 73.304C138.273 73.304 137.433 73.608 136.825 74.216C136.217 74.808 135.913 75.704 135.913 76.904V83H132.169V70.088H135.745V71.792ZM155.673 70.088L150.225 83H146.361L140.937 70.088H144.801L148.377 78.872L152.073 70.088H155.673ZM157.201 70.088H160.945V83H157.201V70.088ZM159.073 68.288C158.385 68.288 157.825 68.088 157.393 67.688C156.961 67.288 156.745 66.792 156.745 66.2C156.745 65.608 156.961 65.112 157.393 64.712C157.825 64.312 158.385 64.112 159.073 64.112C159.761 64.112 160.321 64.304 160.753 64.688C161.185 65.072 161.401 65.552 161.401 66.128C161.401 66.752 161.185 67.272 160.753 67.688C160.321 68.088 159.761 68.288 159.073 68.288Z" transform="translate(0 171)" fill="#FFEB3B"/>
</svg>
